<svg width="41" height="41" viewBox="0 0 41 41" fill="none" xmlns="http://www.w3.org/2000/svg">
<path d="M40.5392 18.3848H7.97014L27.4637 1.46289C27.7754 1.19014 27.5862 0.683594 27.1742 0.683594H22.248C22.0309 0.683594 21.8249 0.761523 21.6635 0.900683L0.628052 19.1529C0.435392 19.3199 0.280879 19.5264 0.174983 19.7583C0.0690873 19.9903 0.0142822 20.2423 0.0142822 20.4972C0.0142822 20.7522 0.0690873 21.0042 0.174983 21.2361C0.280879 21.468 0.435392 21.6745 0.628052 21.8415L21.786 40.2051C21.8695 40.2774 21.9697 40.3164 22.0754 40.3164H27.1687C27.5806 40.3164 27.7698 39.8043 27.4581 39.5371L7.97014 22.6152H40.5392C40.7841 22.6152 40.9845 22.4148 40.9845 22.1699V18.8301C40.9845 18.5852 40.7841 18.3848 40.5392 18.3848Z" fill="#F3164D"/>
</svg>
